<svg width="32" height="30" viewBox="0 0 32 30" fill="none" xmlns="http://www.w3.org/2000/svg">
<path d="M1.79989 10.6582L10.9097 9.33427L14.9821 1.07837C15.0933 0.852326 15.2763 0.66934 15.5023 0.558113C16.0692 0.278252 16.7581 0.51147 17.0416 1.07837L21.1139 9.33427L30.2237 10.6582C30.4749 10.6941 30.7045 10.8125 30.8803 10.9919C31.0929 11.2104 31.21 11.5043 31.206 11.809C31.2019 12.1138 31.0771 12.4045 30.8588 12.6173L24.2677 19.0433L25.8249 28.1173C25.8614 28.3283 25.838 28.5454 25.7575 28.7439C25.6769 28.9424 25.5423 29.1143 25.369 29.2402C25.1956 29.3661 24.9905 29.4409 24.7768 29.4561C24.5632 29.4714 24.3495 29.4264 24.1601 29.3264L16.0118 25.0424L7.86354 29.3264C7.64109 29.4448 7.38276 29.4843 7.13519 29.4412C6.51088 29.3336 6.09109 28.7416 6.19873 28.1173L7.75591 19.0433L1.16482 12.6173C0.985418 12.4414 0.867016 12.2118 0.831137 11.9607C0.734261 11.3328 1.17199 10.7515 1.79989 10.6582ZM10.5294 18.1391L9.23414 25.6846L16.0118 22.1254L22.7895 25.6882L21.4942 18.1427L26.9766 12.7967L19.3988 11.6951L16.0118 4.83138L12.6248 11.6951L5.04699 12.7967L10.5294 18.1391Z" fill="#23094E"/>
</svg>
